<svg width="134" height="16" viewBox="0 0 134 16" fill="none" xmlns="http://www.w3.org/2000/svg">
<path d="M8.32118 8.022C8.32118 7.427 8.30418 6.373 7.62418 5.37C6.80818 4.163 5.46518 3.908 4.73418 3.908C2.66018 3.908 0.756182 5.608 0.756182 8.039C0.756182 10.147 2.26918 12.187 4.81918 12.187C6.45118 12.187 7.53918 11.439 8.04918 11.099V9.195C7.26718 9.977 6.24718 10.674 5.09118 10.674C4.20718 10.674 2.55818 10.13 2.43918 8.022H8.32118ZM2.64318 6.764C3.30618 5.217 4.42818 5.2 4.73418 5.2C5.49918 5.2 6.33218 5.693 6.48518 6.764H2.64318ZM16.1582 6.594C16.1582 5.319 15.3082 3.908 13.4212 3.908C11.8232 3.908 11.2282 4.877 10.9052 5.421H10.8712L10.7522 4.095H9.32418V12H10.8882V8.243C10.8882 6.917 11.6362 5.37 13.1152 5.37C14.2032 5.37 14.5942 6.203 14.5942 7.138V12H16.1582V6.594ZM18.5424 1.732L18.3894 4.095H17.0634V5.421H18.3894V10.181C18.3894 11.626 19.2224 12.187 20.5654 12.187C21.3304 12.187 21.8064 12.017 22.0954 11.915V10.504C21.6704 10.725 21.3644 10.776 21.0754 10.776C20.5824 10.776 19.9534 10.606 19.9534 9.688V5.421H22.0954V4.095H19.9534V1.732H18.5424ZM30.1236 8.022C30.1236 7.427 30.1066 6.373 29.4266 5.37C28.6106 4.163 27.2676 3.908 26.5366 3.908C24.4626 3.908 22.5586 5.608 22.5586 8.039C22.5586 10.147 24.0716 12.187 26.6216 12.187C28.2536 12.187 29.3416 11.439 29.8516 11.099V9.195C29.0696 9.977 28.0496 10.674 26.8936 10.674C26.0096 10.674 24.3606 10.13 24.2416 8.022H30.1236ZM24.4456 6.764C25.1086 5.217 26.2306 5.2 26.5366 5.2C27.3016 5.2 28.1346 5.693 28.2876 6.764H24.4456ZM35.8355 4.078C35.4445 3.976 35.0705 3.976 35.0025 3.976C33.4555 3.976 32.9965 5.064 32.8095 5.574H32.7755L32.6565 4.095H31.2285V12H32.7925V8.379C32.7925 6.798 33.7105 5.438 34.9855 5.438C35.2745 5.438 35.4955 5.523 35.8355 5.659V4.078ZM42.9502 11.269C44.1232 12.187 45.0412 12.187 45.3302 12.187C47.2342 12.187 49.0702 10.453 49.0702 7.937C49.0702 5.863 47.7612 3.908 45.5682 3.908C43.9532 3.908 43.2732 4.928 42.9672 5.421H42.9332L42.8312 4.095H41.3862V15.689H42.9502V11.269ZM42.9502 8.226C42.9502 6.492 43.9022 5.37 45.2452 5.37C46.3672 5.37 47.3872 6.39 47.3872 7.971C47.3872 9.399 46.5542 10.674 45.1262 10.674C44.0722 10.674 43.3922 10.011 42.9502 9.586V8.226ZM56.6433 6.866C56.6433 5.455 55.6233 3.908 53.4473 3.908C52.1213 3.908 51.0333 4.486 50.4723 4.809V6.492C51.0843 5.999 51.9683 5.302 53.1413 5.302C53.8723 5.302 55.0283 5.659 55.0793 6.866C52.4443 7.138 49.8433 7.478 49.8433 9.654C49.8433 11.235 51.3223 12.187 52.6313 12.187C54.0763 12.187 54.7393 11.235 55.0623 10.742H55.0963C55.1133 11.558 55.5043 12.102 56.5583 12.102C57.0003 12.102 57.3233 12.017 57.6973 11.915V10.623C57.4253 10.742 57.2213 10.742 57.1533 10.742C56.7453 10.742 56.6433 10.453 56.6433 10.113V6.866ZM55.0793 8.09C54.9773 10.742 53.2433 10.844 52.9543 10.844C52.2063 10.844 51.5263 10.334 51.5263 9.62C51.5263 8.753 52.3253 8.464 54.3143 8.209C54.5693 8.158 54.9773 8.107 55.0793 8.09ZM57.2253 4.095L60.5233 12.085C60.0473 13.496 59.6563 14.516 58.6703 14.516C58.3983 14.516 58.1263 14.448 57.6843 14.278V15.672C57.9053 15.74 58.3303 15.893 58.9083 15.893C60.1153 15.893 60.9823 15.179 61.5773 13.581L65.0963 4.095H63.4133L61.3563 10.402H61.3223L59.0273 4.095H57.2253ZM76.8094 6.628C76.8094 4.928 75.8064 3.908 74.3954 3.908C73.7324 3.908 73.1034 4.146 72.5934 4.622C72.2194 4.962 72.0834 5.251 71.9304 5.557C71.8114 5.2 71.3864 3.908 69.7204 3.908C68.3094 3.908 67.7314 4.741 67.3574 5.285L67.2384 4.095H65.7934V12H67.3574V8.345C67.3574 6.628 68.1394 5.37 69.2614 5.37C70.4174 5.37 70.5194 6.628 70.5194 7.087V12H72.0834V8.26C72.0834 6.764 72.7974 5.37 73.9874 5.37C75.0924 5.37 75.2284 6.492 75.2454 7.087V12H76.8094V6.628ZM85.7216 8.022C85.7216 7.427 85.7046 6.373 85.0246 5.37C84.2086 4.163 82.8656 3.908 82.1346 3.908C80.0606 3.908 78.1566 5.608 78.1566 8.039C78.1566 10.147 79.6696 12.187 82.2196 12.187C83.8516 12.187 84.9396 11.439 85.4496 11.099V9.195C84.6676 9.977 83.6476 10.674 82.4916 10.674C81.6076 10.674 79.9586 10.13 79.8396 8.022H85.7216ZM80.0436 6.764C80.7066 5.217 81.8286 5.2 82.1346 5.2C82.8996 5.2 83.7326 5.693 83.8856 6.764H80.0436ZM93.5587 6.594C93.5587 5.319 92.7087 3.908 90.8217 3.908C89.2237 3.908 88.6287 4.877 88.3057 5.421H88.2717L88.1527 4.095H86.7247V12H88.2887V8.243C88.2887 6.917 89.0367 5.37 90.5157 5.37C91.6037 5.37 91.9947 6.203 91.9947 7.138V12H93.5587V6.594ZM95.9429 1.732L95.7899 4.095H94.4639V5.421H95.7899V10.181C95.7899 11.626 96.6229 12.187 97.9659 12.187C98.7309 12.187 99.2069 12.017 99.4959 11.915V10.504C99.0709 10.725 98.7649 10.776 98.4759 10.776C97.9829 10.776 97.3539 10.606 97.3539 9.688V5.421H99.4959V4.095H97.3539V1.732H95.9429ZM111.107 4.605C110.546 4.316 109.781 3.908 108.693 3.908C106.364 3.908 104.664 5.846 104.664 8.107C104.664 10.351 106.296 12.187 108.557 12.187C109.73 12.187 110.716 11.643 111.107 11.439V9.756C109.968 10.725 109.067 10.725 108.778 10.725C107.435 10.725 106.347 9.535 106.347 8.056C106.347 6.747 107.231 5.37 108.863 5.37C109.203 5.37 110.07 5.404 111.107 6.305V4.605ZM118.391 6.866C118.391 5.455 117.371 3.908 115.195 3.908C113.869 3.908 112.781 4.486 112.22 4.809V6.492C112.832 5.999 113.716 5.302 114.889 5.302C115.62 5.302 116.776 5.659 116.827 6.866C114.192 7.138 111.591 7.478 111.591 9.654C111.591 11.235 113.07 12.187 114.379 12.187C115.824 12.187 116.487 11.235 116.81 10.742H116.844C116.861 11.558 117.252 12.102 118.306 12.102C118.748 12.102 119.071 12.017 119.445 11.915V10.623C119.173 10.742 118.969 10.742 118.901 10.742C118.493 10.742 118.391 10.453 118.391 10.113V6.866ZM116.827 8.09C116.725 10.742 114.991 10.844 114.702 10.844C113.954 10.844 113.274 10.334 113.274 9.62C113.274 8.753 114.073 8.464 116.062 8.209C116.317 8.158 116.725 8.107 116.827 8.09ZM124.838 4.078C124.447 3.976 124.073 3.976 124.005 3.976C122.458 3.976 121.999 5.064 121.812 5.574H121.778L121.659 4.095H120.231V12H121.795V8.379C121.795 6.798 122.713 5.438 123.988 5.438C124.277 5.438 124.498 5.523 124.838 5.659V4.078ZM131.026 0.405999V4.809C130.516 4.435 129.768 3.908 128.68 3.908C126.725 3.908 124.957 5.676 124.957 8.141C124.957 10.436 126.453 12.187 128.442 12.187C130.006 12.187 130.737 11.099 131.009 10.674H131.043L131.145 12H132.59V0.405999H131.026ZM131.026 7.92C131.026 9.909 129.751 10.725 128.782 10.725C127.575 10.725 126.64 9.586 126.64 8.039C126.64 6.492 127.592 5.37 128.901 5.37C129.972 5.37 130.771 6.169 131.026 6.424V7.92Z" fill="white"/>
</svg>
